<mxfile host="app.diagrams.net" agent="Mozilla/5.0 (Windows NT 10.0; Win64; x64) AppleWebKit/537.36 (KHTML, like Gecko) Chrome/132.0.0.0 Safari/537.36 OPR/117.0.0.0" version="26.2.14" pages="2">
  <diagram name="Page-1" id="7dgiddLlsFyWkvfcdYef">
    <mxGraphModel grid="1" page="1" gridSize="10" guides="1" tooltips="1" connect="1" arrows="1" fold="1" pageScale="1" pageWidth="850" pageHeight="1100" math="0" shadow="0">
      <root>
        <mxCell id="0" />
        <mxCell id="1" parent="0" />
        <mxCell id="bC8N2qVBIkna_mmJ77m9-3" style="edgeStyle=orthogonalEdgeStyle;rounded=0;orthogonalLoop=1;jettySize=auto;html=1;exitX=1;exitY=0.5;exitDx=0;exitDy=0;" edge="1" parent="1" source="bC8N2qVBIkna_mmJ77m9-1" target="bC8N2qVBIkna_mmJ77m9-2">
          <mxGeometry relative="1" as="geometry" />
        </mxCell>
        <mxCell id="bC8N2qVBIkna_mmJ77m9-15" style="edgeStyle=orthogonalEdgeStyle;rounded=0;orthogonalLoop=1;jettySize=auto;html=1;exitX=1;exitY=0.5;exitDx=0;exitDy=0;entryX=0;entryY=0.5;entryDx=0;entryDy=0;" edge="1" parent="1" source="bC8N2qVBIkna_mmJ77m9-1" target="bC8N2qVBIkna_mmJ77m9-10">
          <mxGeometry relative="1" as="geometry" />
        </mxCell>
        <mxCell id="bC8N2qVBIkna_mmJ77m9-25" style="edgeStyle=orthogonalEdgeStyle;rounded=0;orthogonalLoop=1;jettySize=auto;html=1;exitX=1;exitY=0.5;exitDx=0;exitDy=0;entryX=0;entryY=0.5;entryDx=0;entryDy=0;" edge="1" parent="1" source="bC8N2qVBIkna_mmJ77m9-1" target="bC8N2qVBIkna_mmJ77m9-23">
          <mxGeometry relative="1" as="geometry" />
        </mxCell>
        <mxCell id="bC8N2qVBIkna_mmJ77m9-1" value="&lt;font face=&quot;Times New Roman&quot; style=&quot;font-size: 24px;&quot;&gt;Root&lt;/font&gt;" style="rounded=1;whiteSpace=wrap;html=1;" vertex="1" parent="1">
          <mxGeometry x="80" y="40" width="120" height="60" as="geometry" />
        </mxCell>
        <mxCell id="bC8N2qVBIkna_mmJ77m9-7" style="edgeStyle=orthogonalEdgeStyle;rounded=0;orthogonalLoop=1;jettySize=auto;html=1;exitX=1;exitY=0.5;exitDx=0;exitDy=0;entryX=0;entryY=0.5;entryDx=0;entryDy=0;" edge="1" parent="1" source="bC8N2qVBIkna_mmJ77m9-2" target="bC8N2qVBIkna_mmJ77m9-6">
          <mxGeometry relative="1" as="geometry" />
        </mxCell>
        <mxCell id="bC8N2qVBIkna_mmJ77m9-2" value="&lt;font face=&quot;Times New Roman&quot;&gt;&lt;span style=&quot;font-size: 24px;&quot;&gt;ingredients_list&lt;/span&gt;&lt;/font&gt;" style="rounded=1;whiteSpace=wrap;html=1;" vertex="1" parent="1">
          <mxGeometry x="260" y="40" width="155" height="60" as="geometry" />
        </mxCell>
        <mxCell id="bC8N2qVBIkna_mmJ77m9-6" value="&lt;font face=&quot;Times New Roman&quot;&gt;&lt;span style=&quot;font-size: 24px;&quot;&gt;{ingredientId}&lt;/span&gt;&lt;/font&gt;" style="rounded=1;whiteSpace=wrap;html=1;" vertex="1" parent="1">
          <mxGeometry x="460" y="40" width="155" height="60" as="geometry" />
        </mxCell>
        <mxCell id="bC8N2qVBIkna_mmJ77m9-8" value="&lt;div&gt;&lt;font face=&quot;Times New Roman&quot;&gt;&lt;span style=&quot;font-size: 18px;&quot;&gt;Ingredient Details:&lt;/span&gt;&lt;/font&gt;&lt;/div&gt;&lt;ul&gt;&lt;li&gt;&lt;font style=&quot;font-size: 18px;&quot; face=&quot;Times New Roman&quot;&gt;name: String&lt;/font&gt;&lt;/li&gt;&lt;li&gt;&lt;font size=&quot;3&quot; face=&quot;Times New Roman&quot;&gt;name_lower: Strng&lt;/font&gt;&lt;/li&gt;&lt;li&gt;&lt;font size=&quot;3&quot; face=&quot;Times New Roman&quot;&gt;calories: float&lt;/font&gt;&lt;/li&gt;&lt;li&gt;&lt;font size=&quot;3&quot; face=&quot;Times New Roman&quot;&gt;carbohydrate: float&lt;/font&gt;&lt;/li&gt;&lt;li&gt;&lt;font size=&quot;3&quot; face=&quot;Times New Roman&quot;&gt;cholesterol: float&lt;/font&gt;&lt;/li&gt;&lt;li&gt;&lt;font size=&quot;3&quot; face=&quot;Times New Roman&quot;&gt;fat: float&lt;/font&gt;&lt;/li&gt;&lt;li&gt;&lt;font size=&quot;3&quot; face=&quot;Times New Roman&quot;&gt;fibre: float&lt;/font&gt;&lt;/li&gt;&lt;li&gt;&lt;font size=&quot;3&quot; face=&quot;Times New Roman&quot;&gt;protein: float&lt;/font&gt;&lt;/li&gt;&lt;li&gt;&lt;font size=&quot;3&quot; face=&quot;Times New Roman&quot;&gt;sodium: float&lt;/font&gt;&lt;/li&gt;&lt;li&gt;&lt;font size=&quot;3&quot; face=&quot;Times New Roman&quot;&gt;sugar: float&lt;/font&gt;&lt;/li&gt;&lt;/ul&gt;" style="whiteSpace=wrap;html=1;aspect=fixed;align=left;" vertex="1" parent="1">
          <mxGeometry x="720" y="40" width="250" height="250" as="geometry" />
        </mxCell>
        <mxCell id="bC8N2qVBIkna_mmJ77m9-9" style="edgeStyle=orthogonalEdgeStyle;rounded=0;orthogonalLoop=1;jettySize=auto;html=1;exitX=1;exitY=0.5;exitDx=0;exitDy=0;entryX=0.005;entryY=0.12;entryDx=0;entryDy=0;entryPerimeter=0;" edge="1" parent="1" source="bC8N2qVBIkna_mmJ77m9-6" target="bC8N2qVBIkna_mmJ77m9-8">
          <mxGeometry relative="1" as="geometry" />
        </mxCell>
        <mxCell id="bC8N2qVBIkna_mmJ77m9-14" style="edgeStyle=orthogonalEdgeStyle;rounded=0;orthogonalLoop=1;jettySize=auto;html=1;exitX=1;exitY=0.5;exitDx=0;exitDy=0;entryX=0;entryY=0.5;entryDx=0;entryDy=0;" edge="1" parent="1" source="bC8N2qVBIkna_mmJ77m9-10" target="bC8N2qVBIkna_mmJ77m9-11">
          <mxGeometry relative="1" as="geometry" />
        </mxCell>
        <mxCell id="bC8N2qVBIkna_mmJ77m9-10" value="&lt;font face=&quot;Times New Roman&quot;&gt;&lt;span style=&quot;font-size: 24px;&quot;&gt;recipes&lt;/span&gt;&lt;/font&gt;" style="rounded=1;whiteSpace=wrap;html=1;" vertex="1" parent="1">
          <mxGeometry x="260" y="320" width="155" height="60" as="geometry" />
        </mxCell>
        <mxCell id="bC8N2qVBIkna_mmJ77m9-19" style="edgeStyle=orthogonalEdgeStyle;rounded=0;orthogonalLoop=1;jettySize=auto;html=1;exitX=0.5;exitY=1;exitDx=0;exitDy=0;entryX=0.5;entryY=0;entryDx=0;entryDy=0;" edge="1" parent="1" source="bC8N2qVBIkna_mmJ77m9-11" target="bC8N2qVBIkna_mmJ77m9-17">
          <mxGeometry relative="1" as="geometry" />
        </mxCell>
        <mxCell id="bC8N2qVBIkna_mmJ77m9-11" value="&lt;font face=&quot;Times New Roman&quot;&gt;&lt;span style=&quot;font-size: 24px;&quot;&gt;{RecipeId}&lt;/span&gt;&lt;/font&gt;" style="rounded=1;whiteSpace=wrap;html=1;" vertex="1" parent="1">
          <mxGeometry x="460" y="320" width="155" height="60" as="geometry" />
        </mxCell>
        <mxCell id="bC8N2qVBIkna_mmJ77m9-12" value="&lt;div&gt;&lt;font face=&quot;Times New Roman&quot; style=&quot;font-size: 18px;&quot;&gt;Recipe Details:&lt;/font&gt;&lt;/div&gt;&lt;ul&gt;&lt;li&gt;&lt;font face=&quot;Times New Roman&quot; size=&quot;3&quot; style=&quot;&quot;&gt;Name: String&lt;/font&gt;&lt;/li&gt;&lt;li&gt;&lt;font face=&quot;Times New Roman&quot; size=&quot;3&quot;&gt;Keywords: List(String)&lt;/font&gt;&lt;/li&gt;&lt;li&gt;&lt;font face=&quot;Times New Roman&quot; size=&quot;3&quot; style=&quot;&quot;&gt;calories: float&lt;/font&gt;&lt;/li&gt;&lt;li&gt;&lt;font face=&quot;Times New Roman&quot; size=&quot;3&quot; style=&quot;&quot;&gt;carbohydrateContent: float&lt;/font&gt;&lt;/li&gt;&lt;li&gt;&lt;font face=&quot;Times New Roman&quot; size=&quot;3&quot;&gt;cholesterolContent: float&lt;/font&gt;&lt;/li&gt;&lt;li&gt;&lt;font face=&quot;Times New Roman&quot; size=&quot;3&quot;&gt;fatContent: float&lt;/font&gt;&lt;/li&gt;&lt;li&gt;&lt;font face=&quot;Times New Roman&quot; size=&quot;3&quot;&gt;fibreContent: float&lt;/font&gt;&lt;/li&gt;&lt;li&gt;&lt;font face=&quot;Times New Roman&quot; size=&quot;3&quot;&gt;proteinContent: float&lt;/font&gt;&lt;/li&gt;&lt;li&gt;&lt;font face=&quot;Times New Roman&quot; size=&quot;3&quot;&gt;saturatedFatContent: float&lt;/font&gt;&lt;/li&gt;&lt;li&gt;&lt;font face=&quot;Times New Roman&quot; size=&quot;3&quot;&gt;sodiumContent: float&lt;/font&gt;&lt;/li&gt;&lt;li&gt;&lt;font face=&quot;Times New Roman&quot; size=&quot;3&quot;&gt;sugarContent: float&lt;/font&gt;&lt;/li&gt;&lt;li&gt;&lt;font face=&quot;Times New Roman&quot; size=&quot;3&quot;&gt;RecipeServings: int&lt;/font&gt;&lt;/li&gt;&lt;li&gt;&lt;font face=&quot;Times New Roman&quot; size=&quot;3&quot;&gt;RecipeYield: int&lt;/font&gt;&lt;/li&gt;&lt;li&gt;&lt;font face=&quot;Times New Roman&quot; size=&quot;3&quot;&gt;instructions: String&lt;/font&gt;&lt;/li&gt;&lt;li&gt;&lt;font face=&quot;Times New Roman&quot; size=&quot;3&quot;&gt;CookTime: String&lt;/font&gt;&lt;/li&gt;&lt;li&gt;&lt;font face=&quot;Times New Roman&quot; size=&quot;3&quot;&gt;PrepTime: String&lt;/font&gt;&lt;/li&gt;&lt;li&gt;&lt;font face=&quot;Times New Roman&quot; size=&quot;3&quot;&gt;TotalTime: String&lt;/font&gt;&lt;/li&gt;&lt;li&gt;&lt;font face=&quot;Times New Roman&quot; size=&quot;3&quot;&gt;images: List(String) (links)&lt;/font&gt;&lt;/li&gt;&lt;li&gt;&lt;font face=&quot;Times New Roman&quot; size=&quot;3&quot;&gt;ExpiryDate: int&lt;/font&gt;&lt;/li&gt;&lt;li&gt;&lt;font face=&quot;Times New Roman&quot; size=&quot;3&quot;&gt;RecipeCategory: String&lt;/font&gt;&lt;/li&gt;&lt;li&gt;&lt;font face=&quot;Times New Roman&quot; size=&quot;3&quot;&gt;RecipeIngredientParts: List(String)&lt;/font&gt;&lt;/li&gt;&lt;li&gt;&lt;font face=&quot;Times New Roman&quot; size=&quot;3&quot;&gt;RecipeIngredientQuantities: List(float)&lt;/font&gt;&lt;/li&gt;&lt;li&gt;&lt;font size=&quot;3&quot; face=&quot;Times New Roman&quot;&gt;ReviewCount&lt;/font&gt;&lt;/li&gt;&lt;li&gt;&lt;font size=&quot;3&quot; face=&quot;Times New Roman&quot;&gt;AggregatedRating&lt;/font&gt;&lt;/li&gt;&lt;/ul&gt;" style="whiteSpace=wrap;html=1;aspect=fixed;align=left;" vertex="1" parent="1">
          <mxGeometry x="720" y="320" width="520" height="520" as="geometry" />
        </mxCell>
        <mxCell id="bC8N2qVBIkna_mmJ77m9-13" style="edgeStyle=orthogonalEdgeStyle;rounded=0;orthogonalLoop=1;jettySize=auto;html=1;exitX=1;exitY=0.5;exitDx=0;exitDy=0;entryX=-0.004;entryY=0.057;entryDx=0;entryDy=0;entryPerimeter=0;" edge="1" parent="1" source="bC8N2qVBIkna_mmJ77m9-11" target="bC8N2qVBIkna_mmJ77m9-12">
          <mxGeometry relative="1" as="geometry" />
        </mxCell>
        <mxCell id="bC8N2qVBIkna_mmJ77m9-20" style="edgeStyle=orthogonalEdgeStyle;rounded=0;orthogonalLoop=1;jettySize=auto;html=1;exitX=0.5;exitY=1;exitDx=0;exitDy=0;entryX=0.5;entryY=0;entryDx=0;entryDy=0;" edge="1" parent="1" source="bC8N2qVBIkna_mmJ77m9-17" target="bC8N2qVBIkna_mmJ77m9-18">
          <mxGeometry relative="1" as="geometry" />
        </mxCell>
        <mxCell id="bC8N2qVBIkna_mmJ77m9-17" value="&lt;font face=&quot;Times New Roman&quot;&gt;&lt;span style=&quot;font-size: 24px;&quot;&gt;reviews&lt;/span&gt;&lt;/font&gt;" style="rounded=1;whiteSpace=wrap;html=1;" vertex="1" parent="1">
          <mxGeometry x="460" y="430" width="155" height="60" as="geometry" />
        </mxCell>
        <mxCell id="bC8N2qVBIkna_mmJ77m9-22" style="edgeStyle=orthogonalEdgeStyle;rounded=0;orthogonalLoop=1;jettySize=auto;html=1;exitX=0.5;exitY=1;exitDx=0;exitDy=0;entryX=0.5;entryY=0;entryDx=0;entryDy=0;" edge="1" parent="1" source="bC8N2qVBIkna_mmJ77m9-18" target="bC8N2qVBIkna_mmJ77m9-21">
          <mxGeometry relative="1" as="geometry" />
        </mxCell>
        <mxCell id="bC8N2qVBIkna_mmJ77m9-18" value="&lt;font face=&quot;Times New Roman&quot;&gt;&lt;span style=&quot;font-size: 24px;&quot;&gt;{userId}&lt;/span&gt;&lt;/font&gt;" style="rounded=1;whiteSpace=wrap;html=1;" vertex="1" parent="1">
          <mxGeometry x="460" y="530" width="155" height="60" as="geometry" />
        </mxCell>
        <mxCell id="bC8N2qVBIkna_mmJ77m9-21" value="&lt;div&gt;&lt;font face=&quot;Times New Roman&quot;&gt;&lt;span style=&quot;font-size: 18px;&quot;&gt;Review Details:&lt;/span&gt;&lt;/font&gt;&lt;/div&gt;&lt;ul&gt;&lt;li&gt;&lt;font style=&quot;font-size: 18px;&quot; face=&quot;Times New Roman&quot;&gt;AuthorName: String&lt;/font&gt;&lt;/li&gt;&lt;li&gt;&lt;font style=&quot;font-size: 18px;&quot; face=&quot;Times New Roman&quot;&gt;DateModified: Date&lt;/font&gt;&lt;/li&gt;&lt;li&gt;&lt;font style=&quot;font-size: 18px;&quot; face=&quot;Times New Roman&quot;&gt;DateSubmitted: Date&lt;/font&gt;&lt;/li&gt;&lt;li&gt;&lt;font style=&quot;font-size: 18px;&quot; face=&quot;Times New Roman&quot;&gt;Rating: int&lt;/font&gt;&lt;/li&gt;&lt;li&gt;&lt;font style=&quot;font-size: 18px;&quot; face=&quot;Times New Roman&quot;&gt;Review: String&lt;/font&gt;&lt;/li&gt;&lt;/ul&gt;" style="whiteSpace=wrap;html=1;aspect=fixed;align=left;" vertex="1" parent="1">
          <mxGeometry x="442.5" y="650" width="190" height="190" as="geometry" />
        </mxCell>
        <mxCell id="bC8N2qVBIkna_mmJ77m9-26" style="edgeStyle=orthogonalEdgeStyle;rounded=0;orthogonalLoop=1;jettySize=auto;html=1;exitX=1;exitY=0.5;exitDx=0;exitDy=0;entryX=0;entryY=0.5;entryDx=0;entryDy=0;" edge="1" parent="1" source="bC8N2qVBIkna_mmJ77m9-23" target="bC8N2qVBIkna_mmJ77m9-24">
          <mxGeometry relative="1" as="geometry" />
        </mxCell>
        <mxCell id="bC8N2qVBIkna_mmJ77m9-23" value="&lt;font face=&quot;Times New Roman&quot;&gt;&lt;span style=&quot;font-size: 24px;&quot;&gt;users&lt;/span&gt;&lt;/font&gt;" style="rounded=1;whiteSpace=wrap;html=1;" vertex="1" parent="1">
          <mxGeometry x="260" y="880" width="155" height="60" as="geometry" />
        </mxCell>
        <mxCell id="bC8N2qVBIkna_mmJ77m9-28" style="edgeStyle=orthogonalEdgeStyle;rounded=0;orthogonalLoop=1;jettySize=auto;html=1;exitX=0.5;exitY=1;exitDx=0;exitDy=0;entryX=0.5;entryY=0;entryDx=0;entryDy=0;" edge="1" parent="1" source="bC8N2qVBIkna_mmJ77m9-24" target="bC8N2qVBIkna_mmJ77m9-27">
          <mxGeometry relative="1" as="geometry" />
        </mxCell>
        <mxCell id="bC8N2qVBIkna_mmJ77m9-37" style="edgeStyle=orthogonalEdgeStyle;rounded=0;orthogonalLoop=1;jettySize=auto;html=1;exitX=1;exitY=0.5;exitDx=0;exitDy=0;entryX=0;entryY=0.5;entryDx=0;entryDy=0;" edge="1" parent="1" source="bC8N2qVBIkna_mmJ77m9-24" target="bC8N2qVBIkna_mmJ77m9-32">
          <mxGeometry relative="1" as="geometry" />
        </mxCell>
        <mxCell id="bC8N2qVBIkna_mmJ77m9-38" style="edgeStyle=orthogonalEdgeStyle;rounded=0;orthogonalLoop=1;jettySize=auto;html=1;exitX=1;exitY=0.5;exitDx=0;exitDy=0;entryX=0;entryY=0.5;entryDx=0;entryDy=0;" edge="1" parent="1" source="bC8N2qVBIkna_mmJ77m9-24" target="bC8N2qVBIkna_mmJ77m9-33">
          <mxGeometry relative="1" as="geometry" />
        </mxCell>
        <mxCell id="bC8N2qVBIkna_mmJ77m9-39" style="edgeStyle=orthogonalEdgeStyle;rounded=0;orthogonalLoop=1;jettySize=auto;html=1;exitX=1;exitY=0.5;exitDx=0;exitDy=0;entryX=0;entryY=0.5;entryDx=0;entryDy=0;" edge="1" parent="1" source="bC8N2qVBIkna_mmJ77m9-24" target="bC8N2qVBIkna_mmJ77m9-34">
          <mxGeometry relative="1" as="geometry" />
        </mxCell>
        <mxCell id="bC8N2qVBIkna_mmJ77m9-40" style="edgeStyle=orthogonalEdgeStyle;rounded=0;orthogonalLoop=1;jettySize=auto;html=1;exitX=1;exitY=0.5;exitDx=0;exitDy=0;entryX=0;entryY=0.5;entryDx=0;entryDy=0;" edge="1" parent="1" source="bC8N2qVBIkna_mmJ77m9-24" target="bC8N2qVBIkna_mmJ77m9-35">
          <mxGeometry relative="1" as="geometry" />
        </mxCell>
        <mxCell id="bC8N2qVBIkna_mmJ77m9-41" style="edgeStyle=orthogonalEdgeStyle;rounded=0;orthogonalLoop=1;jettySize=auto;html=1;exitX=1;exitY=0.5;exitDx=0;exitDy=0;entryX=0;entryY=0.5;entryDx=0;entryDy=0;" edge="1" parent="1" source="bC8N2qVBIkna_mmJ77m9-24" target="bC8N2qVBIkna_mmJ77m9-36">
          <mxGeometry relative="1" as="geometry" />
        </mxCell>
        <mxCell id="eidG6dfPHyUNtjb17lZ_-2" style="edgeStyle=orthogonalEdgeStyle;rounded=0;orthogonalLoop=1;jettySize=auto;html=1;exitX=1;exitY=0.5;exitDx=0;exitDy=0;entryX=0;entryY=0.5;entryDx=0;entryDy=0;fontSize=12;startSize=8;endSize=8;" edge="1" parent="1" source="bC8N2qVBIkna_mmJ77m9-24" target="eidG6dfPHyUNtjb17lZ_-1">
          <mxGeometry relative="1" as="geometry" />
        </mxCell>
        <mxCell id="b8SVzO8kIzlthc9EaLjp-2" style="edgeStyle=orthogonalEdgeStyle;rounded=0;orthogonalLoop=1;jettySize=auto;html=1;exitX=1;exitY=0.5;exitDx=0;exitDy=0;entryX=0;entryY=0.5;entryDx=0;entryDy=0;fontSize=12;startSize=8;endSize=8;" edge="1" parent="1" source="bC8N2qVBIkna_mmJ77m9-24" target="b8SVzO8kIzlthc9EaLjp-1">
          <mxGeometry relative="1" as="geometry" />
        </mxCell>
        <mxCell id="CZU7oRaR1__MTZfsdDnS-43" style="edgeStyle=orthogonalEdgeStyle;rounded=0;orthogonalLoop=1;jettySize=auto;html=1;exitX=1;exitY=0.5;exitDx=0;exitDy=0;entryX=0;entryY=0.5;entryDx=0;entryDy=0;" edge="1" parent="1" source="bC8N2qVBIkna_mmJ77m9-24" target="CZU7oRaR1__MTZfsdDnS-9">
          <mxGeometry relative="1" as="geometry" />
        </mxCell>
        <mxCell id="bC8N2qVBIkna_mmJ77m9-24" value="&lt;font face=&quot;Times New Roman&quot;&gt;&lt;span style=&quot;font-size: 24px;&quot;&gt;{userId}&lt;/span&gt;&lt;/font&gt;" style="rounded=1;whiteSpace=wrap;html=1;" vertex="1" parent="1">
          <mxGeometry x="460" y="880" width="155" height="60" as="geometry" />
        </mxCell>
        <mxCell id="bC8N2qVBIkna_mmJ77m9-27" value="&lt;div&gt;&lt;font face=&quot;Times New Roman&quot;&gt;&lt;span style=&quot;font-size: 18px;&quot;&gt;User Details:&lt;/span&gt;&lt;/font&gt;&lt;/div&gt;&lt;ul&gt;&lt;li&gt;&lt;font face=&quot;Times New Roman&quot;&gt;&lt;span style=&quot;font-size: 18px;&quot;&gt;email: String&lt;/span&gt;&lt;/font&gt;&lt;/li&gt;&lt;li&gt;&lt;font face=&quot;Times New Roman&quot;&gt;&lt;span style=&quot;font-size: 18px;&quot;&gt;name: String&lt;/span&gt;&lt;/font&gt;&lt;/li&gt;&lt;li&gt;&lt;font face=&quot;Times New Roman&quot;&gt;&lt;span style=&quot;font-size: 18px;&quot;&gt;photoUrl: String&lt;/span&gt;&lt;/font&gt;&lt;/li&gt;&lt;li&gt;&lt;font face=&quot;Times New Roman&quot;&gt;&lt;span style=&quot;font-size: 18px;&quot;&gt;createdAt: Date&lt;/span&gt;&lt;/font&gt;&lt;/li&gt;&lt;/ul&gt;" style="whiteSpace=wrap;html=1;aspect=fixed;align=left;" vertex="1" parent="1">
          <mxGeometry x="452.5" y="1000" width="170" height="170" as="geometry" />
        </mxCell>
        <mxCell id="bC8N2qVBIkna_mmJ77m9-43" style="edgeStyle=orthogonalEdgeStyle;rounded=0;orthogonalLoop=1;jettySize=auto;html=1;exitX=1;exitY=0.5;exitDx=0;exitDy=0;entryX=0;entryY=0.5;entryDx=0;entryDy=0;" edge="1" parent="1" source="bC8N2qVBIkna_mmJ77m9-32" target="bC8N2qVBIkna_mmJ77m9-42">
          <mxGeometry relative="1" as="geometry" />
        </mxCell>
        <mxCell id="bC8N2qVBIkna_mmJ77m9-32" value="&lt;font face=&quot;Times New Roman&quot;&gt;&lt;span style=&quot;font-size: 24px;&quot;&gt;inventory&lt;/span&gt;&lt;/font&gt;" style="rounded=1;whiteSpace=wrap;html=1;" vertex="1" parent="1">
          <mxGeometry x="720" y="880" width="155" height="60" as="geometry" />
        </mxCell>
        <mxCell id="TIn5iKzuoG-W4NEa0-Ls-2" style="edgeStyle=none;curved=1;rounded=0;orthogonalLoop=1;jettySize=auto;html=1;exitX=1;exitY=0.5;exitDx=0;exitDy=0;entryX=0;entryY=0.5;entryDx=0;entryDy=0;fontSize=12;startSize=8;endSize=8;" edge="1" parent="1" source="bC8N2qVBIkna_mmJ77m9-33" target="TIn5iKzuoG-W4NEa0-Ls-1">
          <mxGeometry relative="1" as="geometry" />
        </mxCell>
        <mxCell id="bC8N2qVBIkna_mmJ77m9-33" value="&lt;font face=&quot;Times New Roman&quot;&gt;&lt;span style=&quot;font-size: 24px;&quot;&gt;locations&lt;/span&gt;&lt;/font&gt;" style="rounded=1;whiteSpace=wrap;html=1;" vertex="1" parent="1">
          <mxGeometry x="720" y="980" width="155" height="60" as="geometry" />
        </mxCell>
        <mxCell id="TIn5iKzuoG-W4NEa0-Ls-6" style="edgeStyle=none;curved=1;rounded=0;orthogonalLoop=1;jettySize=auto;html=1;exitX=1;exitY=0.5;exitDx=0;exitDy=0;entryX=0;entryY=0.5;entryDx=0;entryDy=0;fontSize=12;startSize=8;endSize=8;" edge="1" parent="1" source="bC8N2qVBIkna_mmJ77m9-34" target="TIn5iKzuoG-W4NEa0-Ls-5">
          <mxGeometry relative="1" as="geometry" />
        </mxCell>
        <mxCell id="bC8N2qVBIkna_mmJ77m9-34" value="&lt;font face=&quot;Times New Roman&quot;&gt;&lt;span style=&quot;font-size: 24px;&quot;&gt;alerts&lt;/span&gt;&lt;/font&gt;" style="rounded=1;whiteSpace=wrap;html=1;" vertex="1" parent="1">
          <mxGeometry x="720" y="1080" width="155" height="60" as="geometry" />
        </mxCell>
        <mxCell id="TIn5iKzuoG-W4NEa0-Ls-14" style="edgeStyle=none;curved=1;rounded=0;orthogonalLoop=1;jettySize=auto;html=1;exitX=1;exitY=0.5;exitDx=0;exitDy=0;fontSize=12;startSize=8;endSize=8;" edge="1" parent="1" source="bC8N2qVBIkna_mmJ77m9-35" target="TIn5iKzuoG-W4NEa0-Ls-11">
          <mxGeometry relative="1" as="geometry" />
        </mxCell>
        <mxCell id="bC8N2qVBIkna_mmJ77m9-35" value="&lt;font face=&quot;Times New Roman&quot;&gt;&lt;span style=&quot;font-size: 24px;&quot;&gt;meals&lt;/span&gt;&lt;/font&gt;" style="rounded=1;whiteSpace=wrap;html=1;" vertex="1" parent="1">
          <mxGeometry x="720" y="1400" width="155" height="60" as="geometry" />
        </mxCell>
        <mxCell id="TIn5iKzuoG-W4NEa0-Ls-23" style="edgeStyle=none;curved=1;rounded=0;orthogonalLoop=1;jettySize=auto;html=1;exitX=1;exitY=0.5;exitDx=0;exitDy=0;entryX=0;entryY=0.5;entryDx=0;entryDy=0;fontSize=12;startSize=8;endSize=8;" edge="1" parent="1" source="bC8N2qVBIkna_mmJ77m9-36" target="TIn5iKzuoG-W4NEa0-Ls-20">
          <mxGeometry relative="1" as="geometry" />
        </mxCell>
        <mxCell id="CZU7oRaR1__MTZfsdDnS-2" style="edgeStyle=orthogonalEdgeStyle;rounded=0;orthogonalLoop=1;jettySize=auto;html=1;exitX=1;exitY=0.5;exitDx=0;exitDy=0;entryX=0;entryY=0.5;entryDx=0;entryDy=0;" edge="1" parent="1" source="bC8N2qVBIkna_mmJ77m9-36" target="CZU7oRaR1__MTZfsdDnS-1">
          <mxGeometry relative="1" as="geometry" />
        </mxCell>
        <mxCell id="bC8N2qVBIkna_mmJ77m9-36" value="&lt;font face=&quot;Times New Roman&quot;&gt;&lt;span style=&quot;font-size: 24px;&quot;&gt;preferences&lt;/span&gt;&lt;/font&gt;" style="rounded=1;whiteSpace=wrap;html=1;" vertex="1" parent="1">
          <mxGeometry x="720" y="1560" width="155" height="60" as="geometry" />
        </mxCell>
        <mxCell id="bC8N2qVBIkna_mmJ77m9-42" value="&lt;font face=&quot;Times New Roman&quot;&gt;&lt;span style=&quot;font-size: 24px;&quot;&gt;{ItemId}_{locationId}&lt;/span&gt;&lt;/font&gt;" style="rounded=1;whiteSpace=wrap;html=1;" vertex="1" parent="1">
          <mxGeometry x="930" y="880" width="240" height="60" as="geometry" />
        </mxCell>
        <mxCell id="bC8N2qVBIkna_mmJ77m9-44" value="&lt;font face=&quot;Times New Roman&quot;&gt;&lt;span style=&quot;font-size: 24px;&quot;&gt;{RecipeId}&lt;/span&gt;&lt;/font&gt;" style="rounded=1;whiteSpace=wrap;html=1;" vertex="1" parent="1">
          <mxGeometry x="460" y="320" width="155" height="60" as="geometry" />
        </mxCell>
        <mxCell id="bC8N2qVBIkna_mmJ77m9-45" value="&lt;div&gt;&lt;font face=&quot;Times New Roman&quot;&gt;&lt;span style=&quot;font-size: 18px;&quot;&gt;Item Details:&lt;/span&gt;&lt;/font&gt;&lt;/div&gt;&lt;ul&gt;&lt;li&gt;&lt;font face=&quot;Times New Roman&quot;&gt;&lt;span style=&quot;font-size: 18px;&quot;&gt;name: String&lt;/span&gt;&lt;/font&gt;&lt;/li&gt;&lt;li&gt;&lt;font face=&quot;Times New Roman&quot;&gt;&lt;span style=&quot;font-size: 18px;&quot;&gt;weight: float&lt;/span&gt;&lt;/font&gt;&lt;/li&gt;&lt;li&gt;&lt;font face=&quot;Times New Roman&quot;&gt;&lt;span style=&quot;font-size: 18px;&quot;&gt;category: String&lt;/span&gt;&lt;/font&gt;&lt;/li&gt;&lt;li&gt;&lt;font face=&quot;Times New Roman&quot;&gt;&lt;span style=&quot;font-size: 18px;&quot;&gt;estimate_expiry: boolean&lt;/span&gt;&lt;/font&gt;&lt;/li&gt;&lt;li&gt;&lt;font face=&quot;Times New Roman&quot;&gt;&lt;span style=&quot;font-size: 18px;&quot;&gt;locationId:int&lt;/span&gt;&lt;/font&gt;&lt;/li&gt;&lt;li&gt;&lt;font face=&quot;Times New Roman&quot;&gt;&lt;span style=&quot;font-size: 18px;&quot;&gt;expiry_date: date&lt;/span&gt;&lt;/font&gt;&lt;/li&gt;&lt;li&gt;&lt;font face=&quot;Times New Roman&quot;&gt;&lt;span style=&quot;font-size: 18px;&quot;&gt;reminder_date: date&lt;/span&gt;&lt;/font&gt;&lt;/li&gt;&lt;li&gt;&lt;font face=&quot;Times New Roman&quot;&gt;&lt;span style=&quot;font-size: 18px;&quot;&gt;date_added: date&lt;/span&gt;&lt;/font&gt;&lt;/li&gt;&lt;/ul&gt;" style="whiteSpace=wrap;html=1;aspect=fixed;align=left;" vertex="1" parent="1">
          <mxGeometry x="1530" y="880" width="250" height="250" as="geometry" />
        </mxCell>
        <mxCell id="bC8N2qVBIkna_mmJ77m9-46" style="edgeStyle=orthogonalEdgeStyle;rounded=0;orthogonalLoop=1;jettySize=auto;html=1;exitX=1;exitY=0.5;exitDx=0;exitDy=0;entryX=-0.001;entryY=0.125;entryDx=0;entryDy=0;entryPerimeter=0;" edge="1" parent="1" source="bC8N2qVBIkna_mmJ77m9-42" target="bC8N2qVBIkna_mmJ77m9-45">
          <mxGeometry relative="1" as="geometry" />
        </mxCell>
        <mxCell id="TIn5iKzuoG-W4NEa0-Ls-1" value="&lt;font face=&quot;Times New Roman&quot;&gt;&lt;span style=&quot;font-size: 24px;&quot;&gt;{locationId}&lt;/span&gt;&lt;/font&gt;" style="rounded=1;whiteSpace=wrap;html=1;" vertex="1" parent="1">
          <mxGeometry x="930" y="980" width="240" height="60" as="geometry" />
        </mxCell>
        <mxCell id="TIn5iKzuoG-W4NEa0-Ls-3" value="&lt;div&gt;&lt;font face=&quot;Times New Roman&quot;&gt;&lt;span style=&quot;font-size: 18px;&quot;&gt;location Details:&lt;/span&gt;&lt;/font&gt;&lt;/div&gt;&lt;ul&gt;&lt;li&gt;&lt;font face=&quot;Times New Roman&quot;&gt;&lt;span style=&quot;font-size: 18px;&quot;&gt;name: String&lt;br&gt;&lt;/span&gt;&lt;/font&gt;&lt;/li&gt;&lt;li&gt;&lt;font face=&quot;Times New Roman&quot;&gt;&lt;span style=&quot;font-size: 18px;&quot;&gt;locationId:int&lt;/span&gt;&lt;/font&gt;&lt;/li&gt;&lt;li&gt;&lt;font face=&quot;Times New Roman&quot;&gt;&lt;span style=&quot;font-size: 18px;&quot;&gt;alcohol_level: int&lt;/span&gt;&lt;/font&gt;&lt;/li&gt;&lt;li&gt;&lt;font face=&quot;Times New Roman&quot;&gt;&lt;span style=&quot;font-size: 18px;&quot;&gt;humidity: float&lt;/span&gt;&lt;/font&gt;&lt;/li&gt;&lt;li&gt;&lt;font face=&quot;Times New Roman&quot;&gt;&lt;span style=&quot;font-size: 18px;&quot;&gt;temperaure: float&lt;/span&gt;&lt;/font&gt;&lt;/li&gt;&lt;li&gt;&lt;font face=&quot;Times New Roman&quot;&gt;&lt;span style=&quot;font-size: 18px;&quot;&gt;weight: float&lt;/span&gt;&lt;/font&gt;&lt;/li&gt;&lt;li&gt;&lt;font face=&quot;Times New Roman&quot;&gt;&lt;span style=&quot;font-size: 18px;&quot;&gt;category: cabinet&lt;/span&gt;&lt;/font&gt;&lt;/li&gt;&lt;li&gt;&lt;font face=&quot;Times New Roman&quot;&gt;&lt;span style=&quot;font-size: 18px;&quot;&gt;image_feed: String&lt;/span&gt;&lt;/font&gt;&lt;/li&gt;&lt;/ul&gt;" style="whiteSpace=wrap;html=1;aspect=fixed;align=left;" vertex="1" parent="1">
          <mxGeometry x="1230" y="980" width="250" height="250" as="geometry" />
        </mxCell>
        <mxCell id="TIn5iKzuoG-W4NEa0-Ls-4" style="edgeStyle=none;curved=1;rounded=0;orthogonalLoop=1;jettySize=auto;html=1;exitX=1;exitY=0.5;exitDx=0;exitDy=0;entryX=0.007;entryY=0.119;entryDx=0;entryDy=0;entryPerimeter=0;fontSize=12;startSize=8;endSize=8;" edge="1" parent="1" source="TIn5iKzuoG-W4NEa0-Ls-1" target="TIn5iKzuoG-W4NEa0-Ls-3">
          <mxGeometry relative="1" as="geometry" />
        </mxCell>
        <mxCell id="TIn5iKzuoG-W4NEa0-Ls-5" value="&lt;font face=&quot;Times New Roman&quot;&gt;&lt;span style=&quot;font-size: 24px;&quot;&gt;{AlertId}&lt;/span&gt;&lt;/font&gt;" style="rounded=1;whiteSpace=wrap;html=1;" vertex="1" parent="1">
          <mxGeometry x="930" y="1080" width="240" height="60" as="geometry" />
        </mxCell>
        <mxCell id="TIn5iKzuoG-W4NEa0-Ls-7" value="&lt;div&gt;&lt;font face=&quot;Times New Roman&quot;&gt;&lt;span style=&quot;font-size: 18px;&quot;&gt;Alert Details:&lt;/span&gt;&lt;/font&gt;&lt;/div&gt;&lt;ul&gt;&lt;li&gt;&lt;font face=&quot;Times New Roman&quot;&gt;&lt;span style=&quot;font-size: 18px;&quot;&gt;subject: String&lt;/span&gt;&lt;/font&gt;&lt;/li&gt;&lt;li&gt;&lt;font face=&quot;Times New Roman&quot;&gt;&lt;span style=&quot;font-size: 18px;&quot;&gt;message: String&lt;/span&gt;&lt;/font&gt;&lt;/li&gt;&lt;li&gt;&lt;font face=&quot;Times New Roman&quot;&gt;&lt;span style=&quot;font-size: 18px;&quot;&gt;id: String (optional)&lt;/span&gt;&lt;/font&gt;&lt;/li&gt;&lt;li&gt;&lt;font face=&quot;Times New Roman&quot;&gt;&lt;span style=&quot;font-size: 18px;&quot;&gt;type: String&lt;/span&gt;&lt;/font&gt;&lt;/li&gt;&lt;li&gt;&lt;font face=&quot;Times New Roman&quot;&gt;&lt;span style=&quot;font-size: 18px;&quot;&gt;urgency: String&lt;/span&gt;&lt;/font&gt;&lt;/li&gt;&lt;li&gt;&lt;font face=&quot;Times New Roman&quot;&gt;&lt;span style=&quot;font-size: 18px;&quot;&gt;createdAt: date&lt;/span&gt;&lt;/font&gt;&lt;/li&gt;&lt;li&gt;&lt;font face=&quot;Times New Roman&quot;&gt;&lt;span style=&quot;font-size: 18px;&quot;&gt;read: boolean&lt;/span&gt;&lt;/font&gt;&lt;/li&gt;&lt;/ul&gt;" style="whiteSpace=wrap;html=1;aspect=fixed;align=left;" vertex="1" parent="1">
          <mxGeometry x="1530" y="1170" width="210" height="210" as="geometry" />
        </mxCell>
        <mxCell id="TIn5iKzuoG-W4NEa0-Ls-10" value="" style="endArrow=classic;html=1;rounded=0;fontSize=12;startSize=8;endSize=8;exitX=1;exitY=0.5;exitDx=0;exitDy=0;entryX=0;entryY=0.5;entryDx=0;entryDy=0;edgeStyle=orthogonalEdgeStyle;" edge="1" parent="1" source="TIn5iKzuoG-W4NEa0-Ls-5" target="TIn5iKzuoG-W4NEa0-Ls-7">
          <mxGeometry width="50" height="50" relative="1" as="geometry">
            <mxPoint x="1340" y="1180" as="sourcePoint" />
            <mxPoint x="1390" y="1130" as="targetPoint" />
            <Array as="points">
              <mxPoint x="1200" y="1110" />
              <mxPoint x="1200" y="1295" />
            </Array>
          </mxGeometry>
        </mxCell>
        <mxCell id="TIn5iKzuoG-W4NEa0-Ls-15" style="edgeStyle=none;curved=1;rounded=0;orthogonalLoop=1;jettySize=auto;html=1;exitX=1;exitY=0.5;exitDx=0;exitDy=0;entryX=0;entryY=0.5;entryDx=0;entryDy=0;fontSize=12;startSize=8;endSize=8;" edge="1" parent="1" source="TIn5iKzuoG-W4NEa0-Ls-11" target="TIn5iKzuoG-W4NEa0-Ls-13">
          <mxGeometry relative="1" as="geometry" />
        </mxCell>
        <mxCell id="TIn5iKzuoG-W4NEa0-Ls-11" value="&lt;font face=&quot;Times New Roman&quot;&gt;&lt;span style=&quot;font-size: 24px;&quot;&gt;Day (Sunday, etc)&lt;/span&gt;&lt;/font&gt;" style="rounded=1;whiteSpace=wrap;html=1;" vertex="1" parent="1">
          <mxGeometry x="930" y="1400" width="240" height="60" as="geometry" />
        </mxCell>
        <mxCell id="TIn5iKzuoG-W4NEa0-Ls-19" style="edgeStyle=none;curved=1;rounded=0;orthogonalLoop=1;jettySize=auto;html=1;exitX=1;exitY=0.5;exitDx=0;exitDy=0;entryX=0;entryY=0.5;entryDx=0;entryDy=0;fontSize=12;startSize=8;endSize=8;" edge="1" parent="1" source="TIn5iKzuoG-W4NEa0-Ls-13" target="TIn5iKzuoG-W4NEa0-Ls-16">
          <mxGeometry relative="1" as="geometry" />
        </mxCell>
        <mxCell id="TIn5iKzuoG-W4NEa0-Ls-13" value="&lt;font face=&quot;Times New Roman&quot;&gt;&lt;span style=&quot;font-size: 24px;&quot;&gt;mealList&lt;/span&gt;&lt;/font&gt;" style="rounded=1;whiteSpace=wrap;html=1;" vertex="1" parent="1">
          <mxGeometry x="1220" y="1400" width="160" height="60" as="geometry" />
        </mxCell>
        <mxCell id="TIn5iKzuoG-W4NEa0-Ls-18" style="edgeStyle=none;curved=1;rounded=0;orthogonalLoop=1;jettySize=auto;html=1;exitX=1;exitY=0.5;exitDx=0;exitDy=0;entryX=0.004;entryY=0.206;entryDx=0;entryDy=0;fontSize=12;startSize=8;endSize=8;entryPerimeter=0;" edge="1" parent="1" source="TIn5iKzuoG-W4NEa0-Ls-16" target="TIn5iKzuoG-W4NEa0-Ls-17">
          <mxGeometry relative="1" as="geometry" />
        </mxCell>
        <mxCell id="TIn5iKzuoG-W4NEa0-Ls-16" value="&lt;font face=&quot;Times New Roman&quot;&gt;&lt;span style=&quot;font-size: 24px;&quot;&gt;{mealId}&lt;/span&gt;&lt;/font&gt;" style="rounded=1;whiteSpace=wrap;html=1;" vertex="1" parent="1">
          <mxGeometry x="1430" y="1400" width="160" height="60" as="geometry" />
        </mxCell>
        <mxCell id="TIn5iKzuoG-W4NEa0-Ls-17" value="&lt;div&gt;&lt;font face=&quot;Times New Roman&quot;&gt;&lt;span style=&quot;font-size: 18px;&quot;&gt;Meal Details:&lt;/span&gt;&lt;/font&gt;&lt;/div&gt;&lt;ul&gt;&lt;li&gt;&lt;font face=&quot;Times New Roman&quot;&gt;&lt;span style=&quot;font-size: 18px;&quot;&gt;name: String&lt;/span&gt;&lt;/font&gt;&lt;/li&gt;&lt;li&gt;&lt;font face=&quot;Times New Roman&quot;&gt;&lt;span style=&quot;font-size: 18px;&quot;&gt;recipes: List(String)&lt;/span&gt;&lt;/font&gt;&lt;/li&gt;&lt;/ul&gt;" style="whiteSpace=wrap;html=1;aspect=fixed;align=left;" vertex="1" parent="1">
          <mxGeometry x="1650" y="1400" width="150" height="150" as="geometry" />
        </mxCell>
        <mxCell id="TIn5iKzuoG-W4NEa0-Ls-24" style="edgeStyle=none;curved=1;rounded=0;orthogonalLoop=1;jettySize=auto;html=1;exitX=1;exitY=0.5;exitDx=0;exitDy=0;entryX=0;entryY=0.5;entryDx=0;entryDy=0;fontSize=12;startSize=8;endSize=8;" edge="1" parent="1" source="TIn5iKzuoG-W4NEa0-Ls-20" target="TIn5iKzuoG-W4NEa0-Ls-21">
          <mxGeometry relative="1" as="geometry" />
        </mxCell>
        <mxCell id="TIn5iKzuoG-W4NEa0-Ls-20" value="&lt;font face=&quot;Times New Roman&quot;&gt;&lt;span style=&quot;font-size: 24px;&quot;&gt;expiry_dates&lt;/span&gt;&lt;/font&gt;" style="rounded=1;whiteSpace=wrap;html=1;" vertex="1" parent="1">
          <mxGeometry x="930" y="1560" width="240" height="60" as="geometry" />
        </mxCell>
        <mxCell id="TIn5iKzuoG-W4NEa0-Ls-25" style="edgeStyle=none;curved=1;rounded=0;orthogonalLoop=1;jettySize=auto;html=1;exitX=1;exitY=0.5;exitDx=0;exitDy=0;fontSize=12;startSize=8;endSize=8;" edge="1" parent="1" source="TIn5iKzuoG-W4NEa0-Ls-21" target="TIn5iKzuoG-W4NEa0-Ls-22">
          <mxGeometry relative="1" as="geometry" />
        </mxCell>
        <mxCell id="TIn5iKzuoG-W4NEa0-Ls-21" value="&lt;font face=&quot;Times New Roman&quot;&gt;&lt;span style=&quot;font-size: 24px;&quot;&gt;items&lt;/span&gt;&lt;/font&gt;" style="rounded=1;whiteSpace=wrap;html=1;" vertex="1" parent="1">
          <mxGeometry x="1220" y="1560" width="160" height="60" as="geometry" />
        </mxCell>
        <mxCell id="TIn5iKzuoG-W4NEa0-Ls-22" value="&lt;font face=&quot;Times New Roman&quot;&gt;&lt;span style=&quot;font-size: 24px;&quot;&gt;{ItemId}&lt;/span&gt;&lt;/font&gt;" style="rounded=1;whiteSpace=wrap;html=1;" vertex="1" parent="1">
          <mxGeometry x="1430" y="1560" width="160" height="60" as="geometry" />
        </mxCell>
        <mxCell id="TIn5iKzuoG-W4NEa0-Ls-26" value="&lt;div&gt;&lt;font face=&quot;Times New Roman&quot;&gt;&lt;span style=&quot;font-size: 18px;&quot;&gt;Item Details:&lt;/span&gt;&lt;/font&gt;&lt;/div&gt;&lt;ul&gt;&lt;li&gt;&lt;font face=&quot;Times New Roman&quot;&gt;&lt;span style=&quot;font-size: 18px;&quot;&gt;name: String&lt;/span&gt;&lt;/font&gt;&lt;/li&gt;&lt;li&gt;&lt;font face=&quot;Times New Roman&quot;&gt;&lt;span style=&quot;font-size: 18px;&quot;&gt;estimated_expiry: int&lt;/span&gt;&lt;/font&gt;&lt;/li&gt;&lt;li&gt;&lt;font face=&quot;Times New Roman&quot;&gt;&lt;span style=&quot;font-size: 18px;&quot;&gt;remind_before: int&lt;/span&gt;&lt;/font&gt;&lt;/li&gt;&lt;/ul&gt;" style="whiteSpace=wrap;html=1;aspect=fixed;align=left;" vertex="1" parent="1">
          <mxGeometry x="1880" y="1560" width="190" height="190" as="geometry" />
        </mxCell>
        <mxCell id="TIn5iKzuoG-W4NEa0-Ls-27" style="edgeStyle=none;curved=1;rounded=0;orthogonalLoop=1;jettySize=auto;html=1;exitX=1;exitY=0.5;exitDx=0;exitDy=0;entryX=0;entryY=0.151;entryDx=0;entryDy=0;entryPerimeter=0;fontSize=12;startSize=8;endSize=8;" edge="1" parent="1" source="TIn5iKzuoG-W4NEa0-Ls-22" target="TIn5iKzuoG-W4NEa0-Ls-26">
          <mxGeometry relative="1" as="geometry" />
        </mxCell>
        <mxCell id="4vaejwYK_N-clH22UkOm-3" style="edgeStyle=none;curved=1;rounded=0;orthogonalLoop=1;jettySize=auto;html=1;exitX=1;exitY=0.5;exitDx=0;exitDy=0;fontSize=12;startSize=8;endSize=8;" edge="1" parent="1" source="eidG6dfPHyUNtjb17lZ_-1" target="4vaejwYK_N-clH22UkOm-2">
          <mxGeometry relative="1" as="geometry" />
        </mxCell>
        <mxCell id="4vaejwYK_N-clH22UkOm-6" style="edgeStyle=orthogonalEdgeStyle;rounded=0;orthogonalLoop=1;jettySize=auto;html=1;exitX=1;exitY=0.5;exitDx=0;exitDy=0;entryX=0;entryY=0.5;entryDx=0;entryDy=0;fontSize=12;startSize=8;endSize=8;" edge="1" parent="1" source="eidG6dfPHyUNtjb17lZ_-1" target="4vaejwYK_N-clH22UkOm-4">
          <mxGeometry relative="1" as="geometry" />
        </mxCell>
        <mxCell id="4vaejwYK_N-clH22UkOm-7" style="edgeStyle=orthogonalEdgeStyle;rounded=0;orthogonalLoop=1;jettySize=auto;html=1;exitX=1;exitY=0.5;exitDx=0;exitDy=0;entryX=0;entryY=0.5;entryDx=0;entryDy=0;fontSize=12;startSize=8;endSize=8;" edge="1" parent="1" source="eidG6dfPHyUNtjb17lZ_-1" target="4vaejwYK_N-clH22UkOm-5">
          <mxGeometry relative="1" as="geometry" />
        </mxCell>
        <mxCell id="eidG6dfPHyUNtjb17lZ_-1" value="&lt;font face=&quot;Times New Roman&quot;&gt;&lt;span style=&quot;font-size: 24px;&quot;&gt;recipes&lt;/span&gt;&lt;/font&gt;" style="rounded=1;whiteSpace=wrap;html=1;" vertex="1" parent="1">
          <mxGeometry x="720" y="1770" width="155" height="60" as="geometry" />
        </mxCell>
        <mxCell id="4vaejwYK_N-clH22UkOm-17" style="edgeStyle=none;curved=1;rounded=0;orthogonalLoop=1;jettySize=auto;html=1;exitX=1;exitY=0.5;exitDx=0;exitDy=0;entryX=0;entryY=0.5;entryDx=0;entryDy=0;fontSize=12;startSize=8;endSize=8;" edge="1" parent="1" source="4vaejwYK_N-clH22UkOm-2" target="4vaejwYK_N-clH22UkOm-14">
          <mxGeometry relative="1" as="geometry" />
        </mxCell>
        <mxCell id="4vaejwYK_N-clH22UkOm-2" value="&lt;font face=&quot;Times New Roman&quot;&gt;&lt;span style=&quot;font-size: 24px;&quot;&gt;saved&lt;/span&gt;&lt;/font&gt;" style="rounded=1;whiteSpace=wrap;html=1;" vertex="1" parent="1">
          <mxGeometry x="930" y="1770" width="240" height="60" as="geometry" />
        </mxCell>
        <mxCell id="4vaejwYK_N-clH22UkOm-4" value="&lt;font face=&quot;Times New Roman&quot;&gt;&lt;span style=&quot;font-size: 24px;&quot;&gt;reviewed&lt;/span&gt;&lt;/font&gt;" style="rounded=1;whiteSpace=wrap;html=1;" vertex="1" parent="1">
          <mxGeometry x="930" y="1880" width="240" height="60" as="geometry" />
        </mxCell>
        <mxCell id="4vaejwYK_N-clH22UkOm-5" value="&lt;font face=&quot;Times New Roman&quot;&gt;&lt;span style=&quot;font-size: 24px;&quot;&gt;viewed&lt;/span&gt;&lt;/font&gt;" style="rounded=1;whiteSpace=wrap;html=1;" vertex="1" parent="1">
          <mxGeometry x="930" y="1990" width="240" height="60" as="geometry" />
        </mxCell>
        <mxCell id="4vaejwYK_N-clH22UkOm-9" value="&lt;font face=&quot;Times New Roman&quot;&gt;&lt;span style=&quot;font-size: 24px;&quot;&gt;{RecipeId}&lt;/span&gt;&lt;/font&gt;" style="rounded=1;whiteSpace=wrap;html=1;" vertex="1" parent="1">
          <mxGeometry x="1470" y="1880" width="155" height="60" as="geometry" />
        </mxCell>
        <mxCell id="4vaejwYK_N-clH22UkOm-16" style="edgeStyle=none;curved=1;rounded=0;orthogonalLoop=1;jettySize=auto;html=1;exitX=1;exitY=0.5;exitDx=0;exitDy=0;fontSize=12;startSize=8;endSize=8;" edge="1" parent="1" source="4vaejwYK_N-clH22UkOm-14" target="4vaejwYK_N-clH22UkOm-15">
          <mxGeometry relative="1" as="geometry" />
        </mxCell>
        <mxCell id="4vaejwYK_N-clH22UkOm-14" value="&lt;font face=&quot;Times New Roman&quot;&gt;&lt;span style=&quot;font-size: 24px;&quot;&gt;{collectionId}&lt;/span&gt;&lt;/font&gt;" style="rounded=1;whiteSpace=wrap;html=1;" vertex="1" parent="1">
          <mxGeometry x="1220" y="1770" width="240" height="60" as="geometry" />
        </mxCell>
        <mxCell id="4vaejwYK_N-clH22UkOm-15" value="&lt;font face=&quot;Times New Roman&quot;&gt;&lt;span style=&quot;font-size: 24px;&quot;&gt;{RecipeId}&lt;/span&gt;&lt;/font&gt;" style="rounded=1;whiteSpace=wrap;html=1;" vertex="1" parent="1">
          <mxGeometry x="1495" y="1770" width="155" height="60" as="geometry" />
        </mxCell>
        <mxCell id="qcmfvGU1C9TLUQyT8600-1" value="&lt;font face=&quot;Times New Roman&quot;&gt;&lt;span style=&quot;font-size: 24px;&quot;&gt;created&lt;/span&gt;&lt;/font&gt;" style="rounded=1;whiteSpace=wrap;html=1;" vertex="1" parent="1">
          <mxGeometry x="930" y="2100" width="240" height="60" as="geometry" />
        </mxCell>
        <mxCell id="qcmfvGU1C9TLUQyT8600-2" style="edgeStyle=orthogonalEdgeStyle;rounded=0;orthogonalLoop=1;jettySize=auto;html=1;exitX=1;exitY=0.5;exitDx=0;exitDy=0;entryX=-0.004;entryY=0.633;entryDx=0;entryDy=0;entryPerimeter=0;fontSize=12;startSize=8;endSize=8;" edge="1" parent="1" source="eidG6dfPHyUNtjb17lZ_-1" target="qcmfvGU1C9TLUQyT8600-1">
          <mxGeometry relative="1" as="geometry" />
        </mxCell>
        <mxCell id="b8SVzO8kIzlthc9EaLjp-4" style="edgeStyle=none;curved=1;rounded=0;orthogonalLoop=1;jettySize=auto;html=1;exitX=1;exitY=0.5;exitDx=0;exitDy=0;entryX=0;entryY=0.5;entryDx=0;entryDy=0;fontSize=12;startSize=8;endSize=8;" edge="1" parent="1" source="b8SVzO8kIzlthc9EaLjp-1" target="b8SVzO8kIzlthc9EaLjp-3">
          <mxGeometry relative="1" as="geometry" />
        </mxCell>
        <mxCell id="b8SVzO8kIzlthc9EaLjp-1" value="&lt;font face=&quot;Times New Roman&quot;&gt;&lt;span style=&quot;font-size: 24px;&quot;&gt;shopping_list&lt;/span&gt;&lt;/font&gt;" style="rounded=1;whiteSpace=wrap;html=1;" vertex="1" parent="1">
          <mxGeometry x="720" y="2190" width="155" height="60" as="geometry" />
        </mxCell>
        <mxCell id="b8SVzO8kIzlthc9EaLjp-3" value="&lt;font face=&quot;Times New Roman&quot;&gt;&lt;span style=&quot;font-size: 24px;&quot;&gt;{ItemId}&lt;/span&gt;&lt;/font&gt;" style="rounded=1;whiteSpace=wrap;html=1;" vertex="1" parent="1">
          <mxGeometry x="930" y="2190" width="240" height="60" as="geometry" />
        </mxCell>
        <mxCell id="b8SVzO8kIzlthc9EaLjp-5" value="&lt;div&gt;&lt;font face=&quot;Times New Roman&quot;&gt;&lt;span style=&quot;font-size: 18px;&quot;&gt;Item Details:&lt;/span&gt;&lt;/font&gt;&lt;/div&gt;&lt;ul&gt;&lt;li&gt;&lt;font face=&quot;Times New Roman&quot;&gt;&lt;span style=&quot;font-size: 18px;&quot;&gt;name: String&lt;/span&gt;&lt;/font&gt;&lt;/li&gt;&lt;li&gt;&lt;font face=&quot;Times New Roman&quot;&gt;&lt;span style=&quot;font-size: 18px;&quot;&gt;purchased: Boolean&lt;/span&gt;&lt;/font&gt;&lt;/li&gt;&lt;li&gt;&lt;font face=&quot;Times New Roman&quot;&gt;&lt;span style=&quot;font-size: 18px;&quot;&gt;quantity: int&amp;nbsp;&lt;/span&gt;&lt;/font&gt;&lt;/li&gt;&lt;li&gt;&lt;font face=&quot;Times New Roman&quot;&gt;&lt;span style=&quot;font-size: 18px;&quot;&gt;reason: String&lt;/span&gt;&lt;/font&gt;&lt;/li&gt;&lt;/ul&gt;" style="whiteSpace=wrap;html=1;aspect=fixed;align=left;" vertex="1" parent="1">
          <mxGeometry x="1240" y="2190" width="220" height="220" as="geometry" />
        </mxCell>
        <mxCell id="CZU7oRaR1__MTZfsdDnS-1" value="&lt;font face=&quot;Times New Roman&quot;&gt;&lt;span style=&quot;font-size: 24px;&quot;&gt;threshold&lt;/span&gt;&lt;/font&gt;" style="rounded=1;whiteSpace=wrap;html=1;" vertex="1" parent="1">
          <mxGeometry x="930" y="1670" width="240" height="60" as="geometry" />
        </mxCell>
        <mxCell id="CZU7oRaR1__MTZfsdDnS-3" style="edgeStyle=none;curved=1;rounded=0;orthogonalLoop=1;jettySize=auto;html=1;exitX=1;exitY=0.5;exitDx=0;exitDy=0;entryX=0;entryY=0.5;entryDx=0;entryDy=0;fontSize=12;startSize=8;endSize=8;" edge="1" parent="1" target="CZU7oRaR1__MTZfsdDnS-5">
          <mxGeometry relative="1" as="geometry">
            <mxPoint x="1170" y="1700" as="sourcePoint" />
          </mxGeometry>
        </mxCell>
        <mxCell id="CZU7oRaR1__MTZfsdDnS-4" style="edgeStyle=none;curved=1;rounded=0;orthogonalLoop=1;jettySize=auto;html=1;exitX=1;exitY=0.5;exitDx=0;exitDy=0;fontSize=12;startSize=8;endSize=8;" edge="1" parent="1" source="CZU7oRaR1__MTZfsdDnS-5" target="CZU7oRaR1__MTZfsdDnS-6">
          <mxGeometry relative="1" as="geometry" />
        </mxCell>
        <mxCell id="CZU7oRaR1__MTZfsdDnS-5" value="&lt;font face=&quot;Times New Roman&quot;&gt;&lt;span style=&quot;font-size: 24px;&quot;&gt;items&lt;/span&gt;&lt;/font&gt;" style="rounded=1;whiteSpace=wrap;html=1;" vertex="1" parent="1">
          <mxGeometry x="1220" y="1670" width="160" height="60" as="geometry" />
        </mxCell>
        <mxCell id="CZU7oRaR1__MTZfsdDnS-6" value="&lt;font face=&quot;Times New Roman&quot;&gt;&lt;span style=&quot;font-size: 24px;&quot;&gt;{ItemId}&lt;/span&gt;&lt;/font&gt;" style="rounded=1;whiteSpace=wrap;html=1;" vertex="1" parent="1">
          <mxGeometry x="1430" y="1670" width="160" height="60" as="geometry" />
        </mxCell>
        <mxCell id="CZU7oRaR1__MTZfsdDnS-7" style="edgeStyle=none;curved=1;rounded=0;orthogonalLoop=1;jettySize=auto;html=1;exitX=1;exitY=0.5;exitDx=0;exitDy=0;entryX=0;entryY=0.151;entryDx=0;entryDy=0;entryPerimeter=0;fontSize=12;startSize=8;endSize=8;" edge="1" parent="1" source="CZU7oRaR1__MTZfsdDnS-6">
          <mxGeometry relative="1" as="geometry">
            <mxPoint x="1660" y="1699" as="targetPoint" />
          </mxGeometry>
        </mxCell>
        <mxCell id="CZU7oRaR1__MTZfsdDnS-8" value="&lt;div&gt;&lt;font face=&quot;Times New Roman&quot;&gt;&lt;span style=&quot;font-size: 18px;&quot;&gt;Item Details:&lt;/span&gt;&lt;/font&gt;&lt;/div&gt;&lt;ul&gt;&lt;li&gt;&lt;font face=&quot;Times New Roman&quot;&gt;&lt;span style=&quot;font-size: 18px;&quot;&gt;name: String&lt;/span&gt;&lt;/font&gt;&lt;/li&gt;&lt;li&gt;&lt;font face=&quot;Times New Roman&quot;&gt;&lt;span style=&quot;font-size: 18px;&quot;&gt;minimum: int&lt;/span&gt;&lt;/font&gt;&lt;/li&gt;&lt;/ul&gt;" style="whiteSpace=wrap;html=1;aspect=fixed;align=left;" vertex="1" parent="1">
          <mxGeometry x="1660" y="1640" width="190" height="190" as="geometry" />
        </mxCell>
        <mxCell id="CZU7oRaR1__MTZfsdDnS-32" style="edgeStyle=orthogonalEdgeStyle;rounded=0;orthogonalLoop=1;jettySize=auto;html=1;exitX=1;exitY=0.5;exitDx=0;exitDy=0;entryX=0;entryY=0.5;entryDx=0;entryDy=0;" edge="1" parent="1" source="CZU7oRaR1__MTZfsdDnS-9" target="CZU7oRaR1__MTZfsdDnS-28">
          <mxGeometry relative="1" as="geometry" />
        </mxCell>
        <mxCell id="CZU7oRaR1__MTZfsdDnS-9" value="&lt;font face=&quot;Times New Roman&quot;&gt;&lt;span style=&quot;font-size: 24px;&quot;&gt;logs&lt;/span&gt;&lt;/font&gt;" style="rounded=1;whiteSpace=wrap;html=1;" vertex="1" parent="1">
          <mxGeometry x="720" y="2460" width="155" height="60" as="geometry" />
        </mxCell>
        <mxCell id="CZU7oRaR1__MTZfsdDnS-10" style="edgeStyle=none;curved=1;rounded=0;orthogonalLoop=1;jettySize=auto;html=1;exitX=1;exitY=0.5;exitDx=0;exitDy=0;entryX=0;entryY=0.5;entryDx=0;entryDy=0;fontSize=12;startSize=8;endSize=8;" edge="1" parent="1" target="CZU7oRaR1__MTZfsdDnS-12">
          <mxGeometry relative="1" as="geometry">
            <mxPoint x="1172.5" y="1910" as="sourcePoint" />
          </mxGeometry>
        </mxCell>
        <mxCell id="CZU7oRaR1__MTZfsdDnS-11" style="edgeStyle=none;curved=1;rounded=0;orthogonalLoop=1;jettySize=auto;html=1;exitX=1;exitY=0.5;exitDx=0;exitDy=0;fontSize=12;startSize=8;endSize=8;entryX=0;entryY=0.5;entryDx=0;entryDy=0;" edge="1" parent="1" source="CZU7oRaR1__MTZfsdDnS-12" target="4vaejwYK_N-clH22UkOm-9">
          <mxGeometry relative="1" as="geometry">
            <mxPoint x="1432.5" y="1910" as="targetPoint" />
          </mxGeometry>
        </mxCell>
        <mxCell id="CZU7oRaR1__MTZfsdDnS-12" value="&lt;font face=&quot;Times New Roman&quot;&gt;&lt;span style=&quot;font-size: 24px;&quot;&gt;items&lt;/span&gt;&lt;/font&gt;" style="rounded=1;whiteSpace=wrap;html=1;" vertex="1" parent="1">
          <mxGeometry x="1222.5" y="1880" width="160" height="60" as="geometry" />
        </mxCell>
        <mxCell id="CZU7oRaR1__MTZfsdDnS-17" value="&lt;font face=&quot;Times New Roman&quot;&gt;&lt;span style=&quot;font-size: 24px;&quot;&gt;{RecipeId}&lt;/span&gt;&lt;/font&gt;" style="rounded=1;whiteSpace=wrap;html=1;" vertex="1" parent="1">
          <mxGeometry x="1470" y="1990" width="155" height="60" as="geometry" />
        </mxCell>
        <mxCell id="CZU7oRaR1__MTZfsdDnS-18" style="edgeStyle=none;curved=1;rounded=0;orthogonalLoop=1;jettySize=auto;html=1;exitX=1;exitY=0.5;exitDx=0;exitDy=0;entryX=0;entryY=0.5;entryDx=0;entryDy=0;fontSize=12;startSize=8;endSize=8;" edge="1" parent="1" target="CZU7oRaR1__MTZfsdDnS-20">
          <mxGeometry relative="1" as="geometry">
            <mxPoint x="1172.5" y="2020" as="sourcePoint" />
          </mxGeometry>
        </mxCell>
        <mxCell id="CZU7oRaR1__MTZfsdDnS-19" style="edgeStyle=none;curved=1;rounded=0;orthogonalLoop=1;jettySize=auto;html=1;exitX=1;exitY=0.5;exitDx=0;exitDy=0;fontSize=12;startSize=8;endSize=8;entryX=0;entryY=0.5;entryDx=0;entryDy=0;" edge="1" parent="1" source="CZU7oRaR1__MTZfsdDnS-20" target="CZU7oRaR1__MTZfsdDnS-17">
          <mxGeometry relative="1" as="geometry">
            <mxPoint x="1432.5" y="2020" as="targetPoint" />
          </mxGeometry>
        </mxCell>
        <mxCell id="CZU7oRaR1__MTZfsdDnS-20" value="&lt;font face=&quot;Times New Roman&quot;&gt;&lt;span style=&quot;font-size: 24px;&quot;&gt;items&lt;/span&gt;&lt;/font&gt;" style="rounded=1;whiteSpace=wrap;html=1;" vertex="1" parent="1">
          <mxGeometry x="1222.5" y="1990" width="160" height="60" as="geometry" />
        </mxCell>
        <mxCell id="CZU7oRaR1__MTZfsdDnS-21" value="&lt;font face=&quot;Times New Roman&quot;&gt;&lt;span style=&quot;font-size: 24px;&quot;&gt;{RecipeId}&lt;/span&gt;&lt;/font&gt;" style="rounded=1;whiteSpace=wrap;html=1;" vertex="1" parent="1">
          <mxGeometry x="1467.5" y="2100" width="155" height="60" as="geometry" />
        </mxCell>
        <mxCell id="CZU7oRaR1__MTZfsdDnS-22" style="edgeStyle=none;curved=1;rounded=0;orthogonalLoop=1;jettySize=auto;html=1;exitX=1;exitY=0.5;exitDx=0;exitDy=0;entryX=0;entryY=0.5;entryDx=0;entryDy=0;fontSize=12;startSize=8;endSize=8;" edge="1" parent="1" target="CZU7oRaR1__MTZfsdDnS-24">
          <mxGeometry relative="1" as="geometry">
            <mxPoint x="1170" y="2130" as="sourcePoint" />
          </mxGeometry>
        </mxCell>
        <mxCell id="CZU7oRaR1__MTZfsdDnS-23" style="edgeStyle=none;curved=1;rounded=0;orthogonalLoop=1;jettySize=auto;html=1;exitX=1;exitY=0.5;exitDx=0;exitDy=0;fontSize=12;startSize=8;endSize=8;entryX=0;entryY=0.5;entryDx=0;entryDy=0;" edge="1" parent="1" source="CZU7oRaR1__MTZfsdDnS-24" target="CZU7oRaR1__MTZfsdDnS-21">
          <mxGeometry relative="1" as="geometry">
            <mxPoint x="1430" y="2130" as="targetPoint" />
          </mxGeometry>
        </mxCell>
        <mxCell id="CZU7oRaR1__MTZfsdDnS-24" value="&lt;font face=&quot;Times New Roman&quot;&gt;&lt;span style=&quot;font-size: 24px;&quot;&gt;items&lt;/span&gt;&lt;/font&gt;" style="rounded=1;whiteSpace=wrap;html=1;" vertex="1" parent="1">
          <mxGeometry x="1220" y="2100" width="160" height="60" as="geometry" />
        </mxCell>
        <mxCell id="CZU7oRaR1__MTZfsdDnS-25" style="edgeStyle=orthogonalEdgeStyle;rounded=0;orthogonalLoop=1;jettySize=auto;html=1;exitX=1;exitY=0.5;exitDx=0;exitDy=0;entryX=0.013;entryY=0.134;entryDx=0;entryDy=0;entryPerimeter=0;" edge="1" parent="1" source="b8SVzO8kIzlthc9EaLjp-3" target="b8SVzO8kIzlthc9EaLjp-5">
          <mxGeometry relative="1" as="geometry" />
        </mxCell>
        <mxCell id="CZU7oRaR1__MTZfsdDnS-33" style="edgeStyle=orthogonalEdgeStyle;rounded=0;orthogonalLoop=1;jettySize=auto;html=1;exitX=1;exitY=0.5;exitDx=0;exitDy=0;entryX=0;entryY=0.5;entryDx=0;entryDy=0;" edge="1" parent="1" source="CZU7oRaR1__MTZfsdDnS-28" target="CZU7oRaR1__MTZfsdDnS-29">
          <mxGeometry relative="1" as="geometry" />
        </mxCell>
        <mxCell id="CZU7oRaR1__MTZfsdDnS-34" style="edgeStyle=orthogonalEdgeStyle;rounded=0;orthogonalLoop=1;jettySize=auto;html=1;exitX=1;exitY=0.5;exitDx=0;exitDy=0;entryX=0;entryY=0.5;entryDx=0;entryDy=0;" edge="1" parent="1" source="CZU7oRaR1__MTZfsdDnS-28" target="CZU7oRaR1__MTZfsdDnS-30">
          <mxGeometry relative="1" as="geometry" />
        </mxCell>
        <mxCell id="CZU7oRaR1__MTZfsdDnS-35" style="edgeStyle=orthogonalEdgeStyle;rounded=0;orthogonalLoop=1;jettySize=auto;html=1;exitX=1;exitY=0.5;exitDx=0;exitDy=0;entryX=0;entryY=0.5;entryDx=0;entryDy=0;" edge="1" parent="1" source="CZU7oRaR1__MTZfsdDnS-28" target="CZU7oRaR1__MTZfsdDnS-31">
          <mxGeometry relative="1" as="geometry" />
        </mxCell>
        <mxCell id="CZU7oRaR1__MTZfsdDnS-28" value="&lt;font face=&quot;Times New Roman&quot;&gt;&lt;span style=&quot;font-size: 24px;&quot;&gt;itemList&lt;/span&gt;&lt;/font&gt;" style="rounded=1;whiteSpace=wrap;html=1;" vertex="1" parent="1">
          <mxGeometry x="930" y="2460" width="240" height="60" as="geometry" />
        </mxCell>
        <mxCell id="CZU7oRaR1__MTZfsdDnS-37" style="edgeStyle=orthogonalEdgeStyle;rounded=0;orthogonalLoop=1;jettySize=auto;html=1;exitX=1;exitY=0.5;exitDx=0;exitDy=0;entryX=0;entryY=0.5;entryDx=0;entryDy=0;" edge="1" parent="1" source="CZU7oRaR1__MTZfsdDnS-29" target="CZU7oRaR1__MTZfsdDnS-36">
          <mxGeometry relative="1" as="geometry" />
        </mxCell>
        <mxCell id="CZU7oRaR1__MTZfsdDnS-29" value="&lt;font face=&quot;Times New Roman&quot;&gt;&lt;span style=&quot;font-size: 24px;&quot;&gt;expired&lt;/span&gt;&lt;/font&gt;" style="rounded=1;whiteSpace=wrap;html=1;" vertex="1" parent="1">
          <mxGeometry x="1220" y="2460" width="160" height="60" as="geometry" />
        </mxCell>
        <mxCell id="CZU7oRaR1__MTZfsdDnS-39" style="edgeStyle=orthogonalEdgeStyle;rounded=0;orthogonalLoop=1;jettySize=auto;html=1;exitX=1;exitY=0.5;exitDx=0;exitDy=0;entryX=0;entryY=0.5;entryDx=0;entryDy=0;" edge="1" parent="1" source="CZU7oRaR1__MTZfsdDnS-30" target="CZU7oRaR1__MTZfsdDnS-36">
          <mxGeometry relative="1" as="geometry" />
        </mxCell>
        <mxCell id="CZU7oRaR1__MTZfsdDnS-30" value="&lt;font face=&quot;Times New Roman&quot;&gt;&lt;span style=&quot;font-size: 24px;&quot;&gt;interaction&lt;/span&gt;&lt;/font&gt;" style="rounded=1;whiteSpace=wrap;html=1;" vertex="1" parent="1">
          <mxGeometry x="1222.5" y="2570" width="160" height="60" as="geometry" />
        </mxCell>
        <mxCell id="CZU7oRaR1__MTZfsdDnS-41" style="edgeStyle=orthogonalEdgeStyle;rounded=0;orthogonalLoop=1;jettySize=auto;html=1;exitX=1;exitY=0.5;exitDx=0;exitDy=0;entryX=0;entryY=0.5;entryDx=0;entryDy=0;" edge="1" parent="1" source="CZU7oRaR1__MTZfsdDnS-31" target="CZU7oRaR1__MTZfsdDnS-36">
          <mxGeometry relative="1" as="geometry" />
        </mxCell>
        <mxCell id="CZU7oRaR1__MTZfsdDnS-31" value="&lt;font face=&quot;Times New Roman&quot;&gt;&lt;span style=&quot;font-size: 24px;&quot;&gt;inventory&lt;/span&gt;&lt;/font&gt;" style="rounded=1;whiteSpace=wrap;html=1;" vertex="1" parent="1">
          <mxGeometry x="1222.5" y="2680" width="160" height="60" as="geometry" />
        </mxCell>
        <mxCell id="CZU7oRaR1__MTZfsdDnS-42" style="edgeStyle=orthogonalEdgeStyle;rounded=0;orthogonalLoop=1;jettySize=auto;html=1;exitX=1;exitY=0.5;exitDx=0;exitDy=0;" edge="1" parent="1" source="CZU7oRaR1__MTZfsdDnS-36" target="CZU7oRaR1__MTZfsdDnS-38">
          <mxGeometry relative="1" as="geometry" />
        </mxCell>
        <mxCell id="CZU7oRaR1__MTZfsdDnS-36" value="&lt;font face=&quot;Times New Roman&quot;&gt;&lt;span style=&quot;font-size: 24px;&quot;&gt;{logId}&lt;/span&gt;&lt;/font&gt;" style="rounded=1;whiteSpace=wrap;html=1;" vertex="1" parent="1">
          <mxGeometry x="1450" y="2460" width="155" height="60" as="geometry" />
        </mxCell>
        <mxCell id="CZU7oRaR1__MTZfsdDnS-38" value="&lt;div&gt;&lt;font face=&quot;Times New Roman&quot;&gt;&lt;span style=&quot;font-size: 18px;&quot;&gt;Log Details:&lt;/span&gt;&lt;/font&gt;&lt;/div&gt;&lt;ul&gt;&lt;li&gt;&lt;font face=&quot;Times New Roman&quot;&gt;&lt;span style=&quot;font-size: 18px;&quot;&gt;date: date&lt;/span&gt;&lt;/font&gt;&lt;/li&gt;&lt;li&gt;&lt;font face=&quot;Times New Roman&quot;&gt;&lt;span style=&quot;font-size: 18px;&quot;&gt;message: string&lt;/span&gt;&lt;/font&gt;&lt;/li&gt;&lt;/ul&gt;" style="whiteSpace=wrap;html=1;aspect=fixed;align=left;" vertex="1" parent="1">
          <mxGeometry x="1680" y="2425" width="130" height="130" as="geometry" />
        </mxCell>
      </root>
    </mxGraphModel>
  </diagram>
  <diagram id="UqZi_0Rie-MMSDaPogSS" name="Page-2">
    <mxGraphModel grid="0" page="0" gridSize="10" guides="1" tooltips="1" connect="1" arrows="1" fold="1" pageScale="1" pageWidth="850" pageHeight="1100" math="0" shadow="0">
      <root>
        <mxCell id="0" />
        <mxCell id="1" parent="0" />
        <mxCell id="No4Lqc-hVEpFdojvEaTV-1" style="edgeStyle=orthogonalEdgeStyle;rounded=0;orthogonalLoop=1;jettySize=auto;html=1;exitX=1;exitY=0.5;exitDx=0;exitDy=0;entryX=0;entryY=0.5;entryDx=0;entryDy=0;" edge="1" parent="1" source="No4Lqc-hVEpFdojvEaTV-2" target="No4Lqc-hVEpFdojvEaTV-6">
          <mxGeometry relative="1" as="geometry" />
        </mxCell>
        <mxCell id="No4Lqc-hVEpFdojvEaTV-2" value="&lt;font face=&quot;Times New Roman&quot;&gt;&lt;span style=&quot;font-size: 24px;&quot;&gt;logs&lt;/span&gt;&lt;/font&gt;" style="rounded=1;whiteSpace=wrap;html=1;" vertex="1" parent="1">
          <mxGeometry x="720" y="2460" width="155" height="60" as="geometry" />
        </mxCell>
        <mxCell id="No4Lqc-hVEpFdojvEaTV-3" style="edgeStyle=orthogonalEdgeStyle;rounded=0;orthogonalLoop=1;jettySize=auto;html=1;exitX=1;exitY=0.5;exitDx=0;exitDy=0;entryX=0;entryY=0.5;entryDx=0;entryDy=0;" edge="1" parent="1" source="No4Lqc-hVEpFdojvEaTV-6" target="No4Lqc-hVEpFdojvEaTV-8">
          <mxGeometry relative="1" as="geometry" />
        </mxCell>
        <mxCell id="No4Lqc-hVEpFdojvEaTV-4" style="edgeStyle=orthogonalEdgeStyle;rounded=0;orthogonalLoop=1;jettySize=auto;html=1;exitX=1;exitY=0.5;exitDx=0;exitDy=0;entryX=0;entryY=0.5;entryDx=0;entryDy=0;" edge="1" parent="1" source="No4Lqc-hVEpFdojvEaTV-6" target="No4Lqc-hVEpFdojvEaTV-10">
          <mxGeometry relative="1" as="geometry" />
        </mxCell>
        <mxCell id="No4Lqc-hVEpFdojvEaTV-5" style="edgeStyle=orthogonalEdgeStyle;rounded=0;orthogonalLoop=1;jettySize=auto;html=1;exitX=1;exitY=0.5;exitDx=0;exitDy=0;entryX=0;entryY=0.5;entryDx=0;entryDy=0;" edge="1" parent="1" source="No4Lqc-hVEpFdojvEaTV-6" target="No4Lqc-hVEpFdojvEaTV-12">
          <mxGeometry relative="1" as="geometry" />
        </mxCell>
        <mxCell id="No4Lqc-hVEpFdojvEaTV-6" value="&lt;font face=&quot;Times New Roman&quot;&gt;&lt;span style=&quot;font-size: 24px;&quot;&gt;itemList&lt;/span&gt;&lt;/font&gt;" style="rounded=1;whiteSpace=wrap;html=1;" vertex="1" parent="1">
          <mxGeometry x="930" y="2460" width="240" height="60" as="geometry" />
        </mxCell>
        <mxCell id="No4Lqc-hVEpFdojvEaTV-7" style="edgeStyle=orthogonalEdgeStyle;rounded=0;orthogonalLoop=1;jettySize=auto;html=1;exitX=1;exitY=0.5;exitDx=0;exitDy=0;entryX=0;entryY=0.5;entryDx=0;entryDy=0;" edge="1" parent="1" source="No4Lqc-hVEpFdojvEaTV-8" target="No4Lqc-hVEpFdojvEaTV-14">
          <mxGeometry relative="1" as="geometry" />
        </mxCell>
        <mxCell id="No4Lqc-hVEpFdojvEaTV-8" value="&lt;font face=&quot;Times New Roman&quot;&gt;&lt;span style=&quot;font-size: 24px;&quot;&gt;expired&lt;/span&gt;&lt;/font&gt;" style="rounded=1;whiteSpace=wrap;html=1;" vertex="1" parent="1">
          <mxGeometry x="1220" y="2460" width="160" height="60" as="geometry" />
        </mxCell>
        <mxCell id="No4Lqc-hVEpFdojvEaTV-9" style="edgeStyle=orthogonalEdgeStyle;rounded=0;orthogonalLoop=1;jettySize=auto;html=1;exitX=1;exitY=0.5;exitDx=0;exitDy=0;entryX=0;entryY=0.5;entryDx=0;entryDy=0;" edge="1" parent="1" source="No4Lqc-hVEpFdojvEaTV-10" target="No4Lqc-hVEpFdojvEaTV-14">
          <mxGeometry relative="1" as="geometry" />
        </mxCell>
        <mxCell id="No4Lqc-hVEpFdojvEaTV-10" value="&lt;font face=&quot;Times New Roman&quot;&gt;&lt;span style=&quot;font-size: 24px;&quot;&gt;interaction&lt;/span&gt;&lt;/font&gt;" style="rounded=1;whiteSpace=wrap;html=1;" vertex="1" parent="1">
          <mxGeometry x="1222.5" y="2570" width="160" height="60" as="geometry" />
        </mxCell>
        <mxCell id="No4Lqc-hVEpFdojvEaTV-11" style="edgeStyle=orthogonalEdgeStyle;rounded=0;orthogonalLoop=1;jettySize=auto;html=1;exitX=1;exitY=0.5;exitDx=0;exitDy=0;entryX=0;entryY=0.5;entryDx=0;entryDy=0;" edge="1" parent="1" source="No4Lqc-hVEpFdojvEaTV-12" target="No4Lqc-hVEpFdojvEaTV-14">
          <mxGeometry relative="1" as="geometry" />
        </mxCell>
        <mxCell id="No4Lqc-hVEpFdojvEaTV-12" value="&lt;font face=&quot;Times New Roman&quot;&gt;&lt;span style=&quot;font-size: 24px;&quot;&gt;inventory&lt;/span&gt;&lt;/font&gt;" style="rounded=1;whiteSpace=wrap;html=1;" vertex="1" parent="1">
          <mxGeometry x="1222.5" y="2680" width="160" height="60" as="geometry" />
        </mxCell>
        <mxCell id="No4Lqc-hVEpFdojvEaTV-13" style="edgeStyle=orthogonalEdgeStyle;rounded=0;orthogonalLoop=1;jettySize=auto;html=1;exitX=1;exitY=0.5;exitDx=0;exitDy=0;" edge="1" parent="1" source="No4Lqc-hVEpFdojvEaTV-14" target="No4Lqc-hVEpFdojvEaTV-15">
          <mxGeometry relative="1" as="geometry" />
        </mxCell>
        <mxCell id="No4Lqc-hVEpFdojvEaTV-14" value="&lt;font face=&quot;Times New Roman&quot;&gt;&lt;span style=&quot;font-size: 24px;&quot;&gt;{logId}&lt;/span&gt;&lt;/font&gt;" style="rounded=1;whiteSpace=wrap;html=1;" vertex="1" parent="1">
          <mxGeometry x="1450" y="2460" width="155" height="60" as="geometry" />
        </mxCell>
        <mxCell id="No4Lqc-hVEpFdojvEaTV-15" value="&lt;div&gt;&lt;font face=&quot;Times New Roman&quot;&gt;&lt;span style=&quot;font-size: 18px;&quot;&gt;Log Details:&lt;/span&gt;&lt;/font&gt;&lt;/div&gt;&lt;ul&gt;&lt;li&gt;&lt;font face=&quot;Times New Roman&quot;&gt;&lt;span style=&quot;font-size: 18px;&quot;&gt;date: date&lt;/span&gt;&lt;/font&gt;&lt;/li&gt;&lt;li&gt;&lt;font face=&quot;Times New Roman&quot;&gt;&lt;span style=&quot;font-size: 18px;&quot;&gt;message: string&lt;/span&gt;&lt;/font&gt;&lt;/li&gt;&lt;/ul&gt;" style="whiteSpace=wrap;html=1;aspect=fixed;align=left;" vertex="1" parent="1">
          <mxGeometry x="1680" y="2425" width="130" height="130" as="geometry" />
        </mxCell>
      </root>
    </mxGraphModel>
  </diagram>
</mxfile>
